<?xml version="1.0" encoding="UTF-8"?>
<svg id="_レイヤー_2" data-name="レイヤー 2" xmlns="http://www.w3.org/2000/svg" viewBox="0 0 40.19 26.17">
  <defs>
    <style>
      .cls-1 {
        fill: #fff;
      }
    </style>
  </defs>
  <g id="_レイヤー_3" data-name="レイヤー 3">
    <g>
      <path class="cls-1" d="M20.1,6.41c4.32,0,7.84,3.52,7.84,7.84s-3.52,7.84-7.84,7.84-7.84-3.52-7.84-7.84,3.52-7.84,7.84-7.84M20.1,4.79c-5.23,0-9.47,4.24-9.47,9.47s4.24,9.47,9.47,9.47,9.47-4.24,9.47-9.47-4.24-9.47-9.47-9.47h0Z"/>
      <path class="cls-1" d="M28.79,1.63l2.02,4.82.42,1h6.77c.31,0,.57.25.57.57v15.97c0,.31-.25.57-.57.57H2.2c-.32,0-.58-.26-.58-.58v-15.94c0-.32.26-.58.58-.58h6.76l.42-1,2.02-4.82h17.38M29.87,0H10.32l-2.44,5.82H2.2c-1.22,0-2.2.99-2.2,2.2v15.94c0,1.22.99,2.2,2.2,2.2h35.79c1.21,0,2.19-.98,2.19-2.19v-15.97c0-1.21-.98-2.19-2.19-2.19h-5.69l-2.44-5.82h0Z"/>
    </g>
  </g>
</svg>