<?xml version="1.0" encoding="UTF-8"?>
<svg id="_レイヤー_2" data-name="レイヤー 2" xmlns="http://www.w3.org/2000/svg" viewBox="0 0 37.75 37.75">
  <defs>
    <style>
      .cls-1 {
        fill: #fff;
      }
    </style>
  </defs>
  <g id="_レイヤー_1-2" data-name="レイヤー 1">
    <g>
      <path class="cls-1" d="M37.75,22.46v-7.17c-.24-.56-5.93-.73-6.29-1.05l-.35-1.22c.07-.31,3.86-4.26,3.67-5.07-1.66-1.66-3.32-3.32-4.98-4.98-1.81,1.22-3.61,2.45-5.42,3.67-.32-.15-.64-.29-.96-.44-.32-2.07-.64-4.14-.96-6.21h-7.17c-.56.24-.73,5.93-1.05,6.29l-1.22.35c-.31-.07-4.26-3.86-5.07-3.67-1.66,1.66-3.32,3.32-4.98,4.98,1.22,1.81,2.45,3.61,3.67,5.42-.15.32-.29.64-.44.96-2.07.32-4.14.64-6.21.96v7.17c.24.56,5.93.73,6.29,1.05l.35,1.22c-.07.31-3.86,4.26-3.67,5.07,1.66,1.66,3.32,3.32,4.98,4.98,1.81-1.22,3.61-2.45,5.42-3.67.32.15.64.29.96.44.32,2.07.64,4.14.96,6.21h7.17c.56-.24.73-5.93,1.05-6.29l1.22-.35c.31.07,4.26,3.86,5.07,3.67,1.66-1.66,3.32-3.32,4.98-4.98-1.22-1.81-2.45-3.61-3.67-5.42.15-.32.29-.64.44-.96,2.07-.32,4.14-.64,6.21-.96ZM33.21,29.63c-1.19,1.19-2.39,2.39-3.58,3.58-1.57-1.17-3.15-2.33-4.72-3.5-.82.29-1.63.58-2.45.87-.26,1.95-.52,3.9-.79,5.86h-5.59c-.23-1.92-.47-3.85-.7-5.77-.84-.32-1.69-.64-2.53-.96-1.57,1.17-3.15,2.33-4.72,3.5-1.19-1.19-2.39-2.39-3.58-3.58,1.17-1.57,2.33-3.15,3.5-4.72-.29-.82-.58-1.63-.87-2.45-1.95-.26-3.9-.52-5.86-.79v-5.59c1.92-.23,3.85-.47,5.77-.7.32-.84.64-1.69.96-2.53-1.17-1.57-2.33-3.15-3.5-4.72l3.58-3.58c1.57,1.17,3.15,2.33,4.72,3.5.82-.29,1.63-.58,2.45-.87.26-1.95.52-3.9.79-5.86l.26-.26c1.78.09,3.55.17,5.33.26l.7,5.77c.84.32,1.69.64,2.53.96l4.72-3.5,3.58,3.58c-1.17,1.57-2.33,3.15-3.5,4.72.29.82.58,1.63.87,2.45,1.95.26,3.9.52,5.86.79v5.59c-1.92.23-3.85.47-5.77.7l-.96,2.53c1.17,1.57,2.33,3.15,3.5,4.72Z"/>
      <path class="cls-1" d="M17.92,11.55c7.78-.79,11.28,9.07,5.24,13.28-6.47,4.52-14.54-2.64-10.57-9.7,1-1.79,3.26-3.37,5.33-3.58ZM18.09,12.78c-6.74.67-7.2,11.29-.09,12.15,9.18,1.1,9.14-13.04.09-12.15Z"/>
    </g>
  </g>
</svg>